<svg xmlns="http://www.w3.org/2000/svg" viewBox="0 0 834 214" preserveAspectRatio="xMinYMin meet" role="img" aria-labelledby="yeed-title">
	<title id="yeed-title">YEED Group</title>
	<path
		d="M176.01.97c6.07.02 10.98 4.93 11 10.97l-.12 164.73c-.02 6.07-4.91 10.98-10.97 11H11.16c-6.04-.03-10.95-4.94-10.97-11V11.94C.21 5.9 5.12.99 11.16.97zM92.55 13.41L74.7 103.14l-1.37 6.97-10.68 10.68v18.46l-6.48-6.48V96.09l9.01-9.01V69.21L53.62 57.65V46.26l11.96 11.98 15.47-6.43 1.87-9.33-15.47 6.41L45.7 27.11v33.83l11.59 11.54V83.8l-9.01 9.01v43.26l29.83 29.88h28.97l29.83-29.88V92.81l-9.01-9.01V72.48l11.59-11.54-.03.01V27.12L117.68 48.9l-15.47-6.41 1.87 9.33 15.49 6.43 11.96-11.98v11.39l-11.56 11.56v17.87l8.99 9.01v36.68l-6.48 6.48V120.8l-10.66-10.68-1.13-5.65-18.14-91.06zm15.6 104.3l6.38 6.38v23.13h.01l-10.78 10.8H81.37l-10.78-10.8v-23.13l6.38-6.38 15.57 15.57 15.61-15.57zM92.54 54.08l9.03 45.3 2.26 11.42-11.29 11.29-11.27-11.29 2.41-12.08 8.86-44.64zm597.12 159.2c-1.92 0-3.67-.32-5.25-.95s-2.94-1.51-4.08-2.64c-1.14-1.12-2.02-2.46-2.65-4.01s-.95-3.23-.95-5.06v-.07c0-1.76.32-3.4.97-4.94a12.59 12.59 0 0 1 2.69-4.04c1.15-1.16 2.51-2.07 4.08-2.74s3.29-1 5.17-1c1.1 0 2.1.08 3.01.23.9.15 1.74.37 2.51.65s1.5.63 2.18 1.05 1.34.9 1.97 1.44l-3.41 4.11a12.85 12.85 0 0 0-1.41-1.05 9.72 9.72 0 0 0-1.46-.77c-.5-.21-1.05-.37-1.63-.49-.59-.12-1.23-.18-1.93-.18-.98 0-1.9.21-2.76.62s-1.61.96-2.25 1.66c-.64.69-1.15 1.5-1.51 2.43a8.17 8.17 0 0 0-.54 2.98v.07c0 1.13.18 2.17.54 3.12s.88 1.78 1.55 2.48 1.45 1.25 2.35 1.64 1.9.58 3.01.58c2.02 0 3.71-.5 5.1-1.49v-3.54h-5.45v-4.67h10.69v10.69c-1.27 1.08-2.77 2-4.52 2.76s-3.74 1.14-5.99 1.14l-.03-.01zm22.5-25.03h11.25c3.12 0 5.51.83 7.17 2.5 1.41 1.41 2.11 3.28 2.11 5.62v.07c0 1.99-.49 3.62-1.46 4.87s-2.24 2.17-3.81 2.76l6.01 8.79h-6.33l-5.27-7.87h-4.25v7.87h-5.41v-24.61h-.01zm10.9 11.95c1.34 0 2.36-.32 3.08-.95.71-.63 1.07-1.48 1.07-2.53v-.07c0-1.17-.38-2.05-1.12-2.64-.75-.59-1.79-.88-3.13-.88h-5.38v7.07h5.48 0zm33.25 13.08c-1.9 0-3.64-.33-5.24-1-1.59-.67-2.97-1.57-4.13-2.71s-2.06-2.47-2.71-4.01c-.64-1.53-.97-3.18-.97-4.94v-.07c0-1.76.33-3.4.98-4.94a12.84 12.84 0 0 1 2.72-4.04c1.16-1.16 2.54-2.07 4.15-2.74 1.6-.67 3.36-1 5.25-1s3.64.33 5.24 1c1.59.67 2.97 1.57 4.13 2.71s2.06 2.47 2.71 4.01c.64 1.53.97 3.18.97 4.94v.07c0 1.76-.33 3.4-.98 4.94a12.84 12.84 0 0 1-2.72 4.04c-1.16 1.16-2.54 2.07-4.15 2.74s-3.36 1-5.26 1h.01zm.07-4.99c1.08 0 2.07-.2 2.99-.6a6.99 6.99 0 0 0 2.34-1.65 7.82 7.82 0 0 0 1.51-2.44c.36-.93.54-1.92.54-2.97v-.07a8.3 8.3 0 0 0-.54-2.99c-.36-.94-.88-1.76-1.55-2.46s-1.46-1.26-2.37-1.67-1.91-.62-2.99-.62-2.1.2-3.01.6a6.91 6.91 0 0 0-2.32 1.65 7.82 7.82 0 0 0-1.51 2.44c-.36.93-.54 1.92-.54 2.97v.07a8.3 8.3 0 0 0 .54 2.99c.36.94.88 1.76 1.55 2.46s1.45 1.26 2.35 1.67 1.9.62 3.01.62zm34.91 4.95c-3.3 0-5.91-.91-7.8-2.74-1.9-1.83-2.85-4.56-2.85-8.19v-14.06h5.41v13.92c0 2.02.47 3.53 1.41 4.55s2.24 1.53 3.9 1.53 2.96-.49 3.9-1.48c.94-.98 1.41-2.46 1.41-4.43v-14.1h5.41v13.89c0 1.87-.25 3.5-.76 4.89-.5 1.38-1.23 2.54-2.16 3.46-.94.93-2.07 1.62-3.41 2.07-1.34.46-2.82.69-4.46.69h0zm23.09-24.99h10.05c1.48 0 2.79.21 3.95.62s2.14.99 2.95 1.74 1.43 1.65 1.86 2.69.65 2.2.65 3.46v.07c0 1.43-.26 2.68-.77 3.76-.52 1.08-1.22 1.98-2.13 2.71-.9.73-1.96 1.27-3.16 1.63-1.21.36-2.5.54-3.88.54h-4.11v7.38h-5.41v-24.61.01zm9.7 12.41c1.36 0 2.41-.36 3.16-1.07s1.12-1.6 1.12-2.65v-.07c0-1.22-.39-2.14-1.18-2.78-.79-.63-1.86-.95-3.22-.95h-4.18v7.52h4.29.01z"
		fill="#e3342d"
	/>
	<path
		d="M527.95 163.14H656.6c1.71 0 3.09-1.38 3.09-3.09v-24.82c0-1.71-1.38-3.09-3.09-3.09h-97.65c-1.71 0-3.09-1.38-3.09-3.09v-18.28c0-1.71 1.38-3.09 3.09-3.09h82.27c1.71 0 3.09-1.38 3.09-3.09V79.77c0-1.71-1.38-3.09-3.09-3.09h-82.27c-1.71 0-3.09-1.38-3.09-3.09V55.31c0-1.71 1.38-3.09 3.09-3.09h97.65c1.71 0 3.09-1.38 3.09-3.09V24.31c0-1.71-1.38-3.09-3.09-3.09H527.95c-1.71 0-3.09 1.38-3.09 3.09v135.7c0 1.71 1.38 3.09 3.09 3.09v.04zM357.97 22.16l-54.6 54.6c-1.21 1.21-3.16 1.21-4.37 0l-54.57-54.57a3.07 3.07 0 0 0-2.18-.9h-35.1c-2.75 0-4.13 3.33-2.18 5.27l79.81 79.81a3.07 3.07 0 0 1 .9 2.18v51.47c0 1.71 1.38 3.09 3.09 3.09h24.82c1.71 0 3.09-1.38 3.09-3.09v-51.47c0-.82.33-1.6.9-2.18l53.22-53.22a3.07 3.07 0 0 1 2.18-.9h131.73c1.7 0 3.09-1.38 3.09-3.09V24.34c0-1.71-1.38-3.09-3.09-3.09H360.14c-.82 0-1.6.33-2.18.9l.01.01zm49.1 85.53h82.27c1.71 0 3.09-1.38 3.09-3.09V79.78c0-1.71-1.38-3.09-3.09-3.09H376.08c-1.71 0-3.09 1.38-3.09 3.09v80.26c0 1.71 1.38 3.09 3.09 3.09h128.65c1.71 0 3.09-1.38 3.09-3.09v-24.82c0-1.71-1.38-3.09-3.09-3.09h-97.65c-1.71 0-3.09-1.38-3.09-3.09v-18.28c0-1.71 1.38-3.09 3.09-3.09l-.01.02zm355.86-86.43h-83.11c-1.7 0-3.09 1.38-3.09 3.09v135.7c0 1.71 1.38 3.09 3.09 3.09h83.11v-.06.03c39.11 0 70.93-31.82 70.93-70.93s-31.82-70.93-70.93-70.93v.01zm0 110.89h-52.12c-1.71 0-3.09-1.38-3.09-3.09V55.34c0-1.71 1.38-3.09 3.09-3.09h52.12c22.03 0 39.95 17.92 39.95 39.95s-17.92 39.95-39.95 39.95z"
		fill="#222"
	/>
</svg>
